<svg xmlns="http://www.w3.org/2000/svg" viewBox="0 0 1200 900" role="img" aria-labelledby="title desc">
  <title id="title">Monochrome visual decision grid</title>
  <desc id="desc">A grid of pill chips, cards and image frames.</desc>
  <rect width="1200" height="900" fill="#ffffff"/>
  <rect x="92" y="86" width="1016" height="728" rx="32" fill="#f6f6f6"/>
  <rect x="152" y="150" width="896" height="126" rx="18" fill="#000000"/>
  <rect x="200" y="194" width="212" height="38" rx="19" fill="#ffffff"/>
  <rect x="440" y="194" width="156" height="38" rx="19" fill="#efefef"/>
  <rect x="624" y="194" width="280" height="38" rx="19" fill="#ffffff"/>
  <rect x="152" y="330" width="418" height="314" rx="24" fill="#ffffff" stroke="#d8d8d8" stroke-width="2"/>
  <rect x="630" y="330" width="418" height="314" rx="24" fill="#000000"/>
  <rect x="192" y="374" width="250" height="34" rx="17" fill="#000000"/>
  <rect x="192" y="438" width="308" height="16" rx="8" fill="#5e5e5e"/>
  <rect x="192" y="472" width="256" height="16" rx="8" fill="#afafaf"/>
  <rect x="192" y="552" width="162" height="46" rx="23" fill="#efefef"/>
  <rect x="674" y="374" width="260" height="34" rx="17" fill="#ffffff"/>
  <rect x="674" y="438" width="306" height="16" rx="8" fill="#afafaf"/>
  <rect x="674" y="472" width="248" height="16" rx="8" fill="#afafaf"/>
  <rect x="674" y="552" width="174" height="46" rx="23" fill="#ffffff"/>
  <rect x="152" y="692" width="896" height="62" rx="31" fill="#ffffff"/>
  <rect x="196" y="714" width="144" height="18" rx="9" fill="#000000"/>
  <rect x="384" y="714" width="196" height="18" rx="9" fill="#5e5e5e"/>
  <rect x="624" y="714" width="130" height="18" rx="9" fill="#afafaf"/>
  <rect x="798" y="714" width="182" height="18" rx="9" fill="#000000"/>
</svg>
